<svg width="310" height="54" viewBox="0 0 310 54" fill="none" xmlns="http://www.w3.org/2000/svg">
<path d="M22.718 14.022C22.5646 12.4751 21.9063 11.2734 20.7429 10.4169C19.5795 9.56037 18.0007 9.1321 16.0064 9.1321C14.6513 9.1321 13.5071 9.32386 12.5739 9.70739C11.6406 10.0781 10.9247 10.5959 10.4261 11.2607C9.94034 11.9254 9.69744 12.6797 9.69744 13.5234C9.67188 14.2266 9.81889 14.8402 10.1385 15.3643C10.4709 15.8885 10.9247 16.3423 11.5 16.7259C12.0753 17.0966 12.7401 17.4226 13.4943 17.7038C14.2486 17.9723 15.054 18.2024 15.9105 18.3942L19.4389 19.2379C21.152 19.6214 22.7244 20.1328 24.1562 20.772C25.5881 21.4112 26.8281 22.1974 27.8764 23.1307C28.9247 24.0639 29.7365 25.1634 30.3118 26.429C30.8999 27.6946 31.2003 29.1456 31.2131 30.782C31.2003 33.1854 30.5866 35.2692 29.3722 37.0334C28.1705 38.7848 26.4318 40.1463 24.1562 41.1179C21.8935 42.0767 19.1641 42.5561 15.968 42.5561C12.7976 42.5561 10.0362 42.0703 7.68395 41.0987C5.34446 40.1271 3.51634 38.6889 2.19957 36.7841C0.895597 34.8665 0.211648 32.495 0.147727 29.6697H8.18253C8.27202 30.9865 8.64915 32.0859 9.31392 32.968C9.99148 33.8374 10.8928 34.4957 12.0178 34.9432C13.1555 35.3778 14.4403 35.5952 15.8722 35.5952C17.2784 35.5952 18.4993 35.3906 19.5348 34.9815C20.5831 34.5724 21.3949 34.0036 21.9702 33.2749C22.5455 32.5462 22.8331 31.7088 22.8331 30.7628C22.8331 29.8807 22.571 29.1392 22.0469 28.5384C21.5355 27.9375 20.7813 27.4261 19.7841 27.0043C18.7997 26.5824 17.5916 26.1989 16.1598 25.8537L11.8835 24.7798C8.57244 23.9744 5.9581 22.7152 4.04048 21.0021C2.12287 19.2891 1.17045 16.9815 1.18324 14.0795C1.17045 11.7017 1.80327 9.62429 3.08168 7.8473C4.37287 6.07031 6.14347 4.68324 8.39347 3.68608C10.6435 2.68892 13.2003 2.19034 16.0639 2.19034C18.9787 2.19034 21.5227 2.68892 23.696 3.68608C25.8821 4.68324 27.5824 6.07031 28.7969 7.8473C30.0114 9.62429 30.6378 11.6825 30.6761 14.022H22.718ZM32.8647 42V12.5455H41.0337V42H32.8647ZM36.9684 8.74858C35.7539 8.74858 34.712 8.34588 33.8427 7.54048C32.9862 6.7223 32.5579 5.74432 32.5579 4.60653C32.5579 3.48153 32.9862 2.51633 33.8427 1.71094C34.712 0.892754 35.7539 0.483663 36.9684 0.483663C38.1829 0.483663 39.2184 0.892754 40.0749 1.71094C40.9443 2.51633 41.3789 3.48153 41.3789 4.60653C41.3789 5.74432 40.9443 6.7223 40.0749 7.54048C39.2184 8.34588 38.1829 8.74858 36.9684 8.74858ZM51.9666 2.72727V42H43.7976V2.72727H51.9666ZM54.7305 42V12.5455H62.8995V42H54.7305ZM58.8342 8.74858C57.6197 8.74858 56.5778 8.34588 55.7085 7.54048C54.8519 6.7223 54.4237 5.74432 54.4237 4.60653C54.4237 3.48153 54.8519 2.51633 55.7085 1.71094C56.5778 0.892754 57.6197 0.483663 58.8342 0.483663C60.0487 0.483663 61.0842 0.892754 61.9407 1.71094C62.81 2.51633 63.2447 3.48153 63.2447 4.60653C63.2447 5.74432 62.81 6.7223 61.9407 7.54048C61.0842 8.34588 60.0487 8.74858 58.8342 8.74858ZM73.8324 24.9716V42H65.6634V2.72727H73.6023V17.7422H73.9475C74.6122 16.0036 75.6861 14.642 77.1691 13.6577C78.652 12.6605 80.5121 12.1619 82.7493 12.1619C84.7948 12.1619 86.5782 12.6094 88.0995 13.5043C89.6335 14.3864 90.8225 15.6584 91.6662 17.3203C92.5228 18.9695 92.9446 20.9446 92.9318 23.2457V42H84.7628V24.7031C84.7756 22.8878 84.3154 21.4751 83.3821 20.4652C82.4617 19.4553 81.1705 18.9503 79.5085 18.9503C78.3963 18.9503 77.412 19.1868 76.5554 19.6598C75.7117 20.1328 75.0469 20.8232 74.5611 21.7308C74.0881 22.6257 73.8452 23.706 73.8324 24.9716ZM104.452 42V2.72727H112.755V20.0433H113.273L127.406 2.72727H137.358L122.784 20.3118L137.531 42H127.598L116.84 25.8537L112.755 30.8395V42H104.452ZM146.148 42.5561C144.269 42.5561 142.594 42.2301 141.124 41.5781C139.654 40.9134 138.491 39.9354 137.634 38.6442C136.79 37.3402 136.368 35.7166 136.368 33.7734C136.368 32.1371 136.669 30.7628 137.27 29.6506C137.871 28.5384 138.689 27.6435 139.724 26.9659C140.76 26.2884 141.936 25.777 143.253 25.4318C144.582 25.0866 145.976 24.8438 147.433 24.7031C149.146 24.5241 150.527 24.358 151.575 24.2045C152.623 24.0384 153.384 23.7955 153.857 23.4759C154.33 23.1562 154.567 22.6832 154.567 22.0568V21.9418C154.567 20.7273 154.183 19.7876 153.416 19.1229C152.662 18.4581 151.588 18.1257 150.194 18.1257C148.724 18.1257 147.555 18.4517 146.685 19.1037C145.816 19.7429 145.241 20.5483 144.959 21.5199L137.404 20.9062C137.788 19.1165 138.542 17.5696 139.667 16.2656C140.792 14.9489 142.243 13.9389 144.02 13.2358C145.81 12.5199 147.881 12.1619 150.233 12.1619C151.869 12.1619 153.435 12.3537 154.931 12.7372C156.439 13.1207 157.775 13.7152 158.939 14.5206C160.115 15.326 161.042 16.3615 161.719 17.6271C162.397 18.88 162.736 20.3821 162.736 22.1335V42H154.989V37.9155H154.758C154.285 38.8359 153.653 39.6477 152.86 40.3509C152.067 41.0412 151.115 41.5845 150.003 41.9808C148.89 42.3643 147.606 42.5561 146.148 42.5561ZM148.488 36.9183C149.689 36.9183 150.751 36.6818 151.671 36.2088C152.591 35.723 153.314 35.071 153.838 34.2528C154.362 33.4347 154.624 32.5078 154.624 31.4723V28.3466C154.368 28.5128 154.017 28.6662 153.569 28.8068C153.135 28.9347 152.643 29.0561 152.093 29.1712C151.543 29.2734 150.993 29.3693 150.444 29.4588C149.894 29.5355 149.395 29.6058 148.948 29.6697C147.989 29.8104 147.152 30.0341 146.436 30.3409C145.72 30.6477 145.164 31.0632 144.768 31.5874C144.371 32.0987 144.173 32.7379 144.173 33.505C144.173 34.6172 144.576 35.4673 145.381 36.0554C146.199 36.6307 147.235 36.9183 148.488 36.9183ZM165.293 42V12.5455H173.079V17.7422H173.424C174.038 16.0163 175.06 14.6548 176.492 13.6577C177.924 12.6605 179.637 12.1619 181.631 12.1619C183.651 12.1619 185.371 12.6669 186.79 13.6768C188.209 14.674 189.155 16.0291 189.628 17.7422H189.935C190.536 16.0547 191.622 14.706 193.195 13.696C194.78 12.6733 196.653 12.1619 198.813 12.1619C201.562 12.1619 203.793 13.0376 205.506 14.7891C207.232 16.5277 208.095 18.995 208.095 22.1911V42H199.945V23.8018C199.945 22.1655 199.51 20.9382 198.641 20.12C197.771 19.3018 196.685 18.8928 195.381 18.8928C193.898 18.8928 192.741 19.3658 191.91 20.3118C191.079 21.245 190.663 22.4787 190.663 24.0128V42H182.744V23.6293C182.744 22.1847 182.328 21.0341 181.497 20.1776C180.679 19.321 179.599 18.8928 178.256 18.8928C177.349 18.8928 176.531 19.1229 175.802 19.5831C175.086 20.0305 174.517 20.6634 174.095 21.4815C173.673 22.2869 173.462 23.233 173.462 24.3196V42H165.293ZM210.921 42V2.72727H219.09V17.4929H219.339C219.697 16.7003 220.215 15.8949 220.892 15.0767C221.583 14.2457 222.478 13.5554 223.577 13.0057C224.689 12.4432 226.07 12.1619 227.719 12.1619C229.867 12.1619 231.848 12.7244 233.664 13.8494C235.479 14.9616 236.93 16.6428 238.017 18.8928C239.103 21.13 239.647 23.9361 239.647 27.3111C239.647 30.5966 239.116 33.3707 238.055 35.6335C237.007 37.8835 235.575 39.5902 233.759 40.7536C231.957 41.9041 229.937 42.4794 227.7 42.4794C226.115 42.4794 224.766 42.2173 223.654 41.6932C222.554 41.169 221.653 40.5107 220.95 39.718C220.247 38.9126 219.71 38.1009 219.339 37.2827H218.975V42H210.921ZM218.917 27.2727C218.917 29.0241 219.16 30.5518 219.646 31.8558C220.132 33.1598 220.835 34.1761 221.755 34.9048C222.676 35.6207 223.794 35.9787 225.111 35.9787C226.441 35.9787 227.566 35.6143 228.486 34.8857C229.406 34.1442 230.103 33.1214 230.576 31.8175C231.062 30.5007 231.305 28.9858 231.305 27.2727C231.305 25.5724 231.068 24.0767 230.595 22.7855C230.122 21.4943 229.426 20.4844 228.505 19.7557C227.585 19.027 226.453 18.6626 225.111 18.6626C223.781 18.6626 222.656 19.0142 221.736 19.7173C220.828 20.4205 220.132 21.4176 219.646 22.7088C219.16 24 218.917 25.5213 218.917 27.2727ZM241.317 42V12.5455H249.486V42H241.317ZM245.421 8.74858C244.207 8.74858 243.165 8.34588 242.295 7.54048C241.439 6.7223 241.011 5.74432 241.011 4.60653C241.011 3.48153 241.439 2.51633 242.295 1.71094C243.165 0.892754 244.207 0.483663 245.421 0.483663C246.636 0.483663 247.671 0.892754 248.528 1.71094C249.397 2.51633 249.832 3.48153 249.832 4.60653C249.832 5.74432 249.397 6.7223 248.528 7.54048C247.671 8.34588 246.636 8.74858 245.421 8.74858ZM260.419 24.9716V42H252.25V12.5455H260.036V17.7422H260.381C261.033 16.0291 262.126 14.674 263.66 13.6768C265.194 12.6669 267.054 12.1619 269.24 12.1619C271.286 12.1619 273.069 12.6094 274.59 13.5043C276.112 14.3991 277.294 15.6776 278.138 17.3395C278.982 18.9886 279.404 20.9574 279.404 23.2457V42H271.235V24.7031C271.247 22.9006 270.787 21.4943 269.854 20.4844C268.921 19.4616 267.636 18.9503 266 18.9503C264.9 18.9503 263.929 19.1868 263.085 19.6598C262.254 20.1328 261.602 20.8232 261.129 21.7308C260.669 22.6257 260.432 23.706 260.419 24.9716ZM295.332 53.6591C292.686 53.6591 290.416 53.2947 288.524 52.5661C286.645 51.8501 285.149 50.8722 284.037 49.6321C282.925 48.392 282.203 46.9986 281.87 45.4517L289.426 44.4354C289.656 45.0234 290.02 45.5732 290.519 46.0845C291.017 46.5959 291.676 47.005 292.494 47.3118C293.325 47.6314 294.335 47.7912 295.524 47.7912C297.301 47.7912 298.764 47.3565 299.915 46.4872C301.078 45.6307 301.66 44.1925 301.66 42.1726V36.7841H301.315C300.957 37.6023 300.42 38.3757 299.704 39.1044C298.988 39.8331 298.068 40.4276 296.943 40.8878C295.818 41.348 294.475 41.5781 292.916 41.5781C290.704 41.5781 288.691 41.0668 286.875 40.044C285.073 39.0085 283.635 37.4297 282.561 35.3075C281.5 33.1726 280.969 30.4751 280.969 27.2152C280.969 23.8786 281.512 21.0916 282.599 18.8544C283.686 16.6172 285.13 14.9425 286.933 13.8303C288.748 12.718 290.736 12.1619 292.897 12.1619C294.546 12.1619 295.926 12.4432 297.039 13.0057C298.151 13.5554 299.046 14.2457 299.723 15.0767C300.414 15.8949 300.944 16.7003 301.315 17.4929H301.622V12.5455H309.733V42.2876C309.733 44.7933 309.12 46.8899 307.892 48.5774C306.665 50.2649 304.965 51.5305 302.791 52.3743C300.631 53.2308 298.144 53.6591 295.332 53.6591ZM295.505 35.4418C296.821 35.4418 297.934 35.1158 298.841 34.4638C299.762 33.799 300.465 32.853 300.951 31.6257C301.449 30.3857 301.698 28.9027 301.698 27.1768C301.698 25.451 301.456 23.9553 300.97 22.6896C300.484 21.4112 299.781 20.4205 298.86 19.7173C297.94 19.0142 296.821 18.6626 295.505 18.6626C294.162 18.6626 293.031 19.027 292.11 19.7557C291.19 20.4716 290.493 21.4687 290.02 22.7472C289.547 24.0256 289.311 25.5021 289.311 27.1768C289.311 28.8771 289.547 30.3473 290.02 31.5874C290.506 32.8146 291.203 33.767 292.11 34.4446C293.031 35.1094 294.162 35.4418 295.505 35.4418Z" fill="white"/>
</svg>
